<svg xmlns="http://www.w3.org/2000/svg" width="512" height="512" viewBox="130 120 260 260">
<g>
<path d="M 239.58 369.89 C183.99,361.79 142.85,316.43 140.35,260.50 C138.85,227.07 152.33,194.52 177.19,171.48 C184.60,164.62 197.53,155.97 205.71,152.40 C208.89,151.01 212.24,149.48 213.14,149.00 C216.87,147.00 234.18,142.97 243.50,141.93 C267.08,139.29 295.59,145.61 315.51,157.89 C332.19,168.17 346.38,182.81 356.05,199.69 C361.12,208.56 368.24,228.87 367.87,233.42 C367.74,235.11 368.15,237.46 368.78,238.63 C370.67,242.09 371.40,258.79 370.08,268.10 C366.26,295.04 355.39,317.98 338.03,335.70 C319.17,354.95 297.83,365.89 271.31,369.91 C263.06,371.16 248.22,371.15 239.58,369.89 ZM 280.19 360.10 C328.79,347.56 362.93,304.36 362.99,255.32 C363.04,213.31 337.01,174.55 297.28,157.46 C281.99,150.88 274.55,149.50 255.00,149.58 C239.31,149.64 236.46,149.93 227.50,152.33 C192.72,161.65 165.38,187.59 153.55,222.50 C144.50,249.19 146.71,278.13 159.84,304.92 C173.93,333.66 204.71,355.83 238.50,361.58 C249.42,363.44 270.07,362.70 280.19,360.10 ZM 147.00 243.00 C147.00,242.45 146.80,242.00 146.56,242.00 C146.32,242.00 145.84,242.45 145.50,243.00 C145.16,243.55 145.36,244.00 145.94,244.00 C146.52,244.00 147.00,243.55 147.00,243.00 ZM 217.00 151.44 C217.00,150.65 216.58,150.00 216.06,150.00 C215.55,150.00 215.19,150.87 215.27,151.93 C215.43,154.11 217.00,153.67 217.00,151.44 ZM 236.33 358.52 C207.46,353.28 179.84,334.34 165.59,310.00 C156.81,295.01 152.62,281.81 150.92,263.87 C149.72,251.30 150.71,241.51 154.53,227.83 C172.91,162.17 245.79,131.84 306.56,164.56 C330.36,177.37 348.71,200.49 356.50,227.50 C359.37,237.43 361.54,256.64 360.01,258.49 C359.49,259.11 359.32,261.17 359.62,263.06 C361.15,272.51 351.02,303.24 343.84,310.95 C342.83,312.03 342.00,313.41 342.00,314.02 C342.00,314.62 341.55,314.84 341.00,314.50 C340.41,314.14 342.05,310.06 344.97,304.65 C352.45,290.77 356.93,276.10 357.68,263.00 C359.48,231.56 348.91,204.66 326.17,182.79 C306.93,164.29 287.01,155.86 259.00,154.37 C237.64,153.23 216.31,158.99 198.76,170.66 C189.80,176.62 176.87,189.54 170.33,199.07 C149.09,230.01 147.29,270.24 165.59,304.74 C178.21,328.52 204.10,348.26 231.50,354.97 C240.25,357.11 262.61,359.07 265.00,357.90 C265.83,357.49 269.88,356.62 274.00,355.96 C283.83,354.38 293.40,350.92 304.62,344.90 C314.54,339.57 318.24,338.57 313.50,342.49 C306.01,348.68 286.88,356.36 272.57,358.93 C264.65,360.36 245.23,360.13 236.33,358.52 ZM 246.50 344.91 C233.93,343.53 225.42,340.67 211.41,333.14 C200.34,327.19 188.28,316.13 180.85,305.12 C176.37,298.49 170.35,286.03 168.67,279.93 C166.71,272.85 164.57,258.10 165.37,257.29 C166.51,256.15 167.12,257.73 167.65,263.15 C170.85,296.40 197.75,329.28 229.50,338.77 C258.85,347.54 283.72,343.17 307.83,325.00 C327.05,310.53 340.58,286.98 342.85,264.08 C343.23,260.22 343.91,257.71 344.50,258.00 C345.05,258.27 345.43,258.73 345.34,259.00 C345.25,259.27 344.91,262.65 344.59,266.50 C343.11,284.02 331.97,306.07 317.70,319.70 C306.77,330.15 290.87,339.42 279.40,342.05 C276.70,342.66 273.60,343.39 272.50,343.66 C270.41,344.17 266.88,344.58 258.50,345.26 C255.75,345.49 250.35,345.33 246.50,344.91 ZM 241.50 337.57 C223.26,334.08 209.95,326.93 196.26,313.26 C191.17,308.17 187.00,303.38 187.00,302.61 C187.00,301.84 186.32,300.95 185.50,300.64 C184.68,300.32 184.01,299.26 184.02,298.28 C184.03,296.40 184.11,296.48 194.00,308.33 C196.48,311.30 199.88,314.69 201.56,315.86 C203.24,317.04 205.49,318.79 206.56,319.75 C212.47,325.08 224.68,330.92 236.67,334.15 C247.48,337.05 266.65,337.10 276.00,334.25 C289.99,329.97 300.69,323.62 311.27,313.32 C327.28,297.73 335.81,278.71 336.17,257.75 C336.28,251.60 336.61,250.00 337.80,250.00 C339.07,250.00 339.19,251.43 338.64,259.35 C336.77,285.91 324.51,307.74 302.19,324.23 C295.59,329.10 284.43,334.43 276.50,336.50 C268.15,338.67 250.14,339.23 241.50,337.57 ZM 327.61 327.50 C333.88,321.17 339.24,316.00 339.51,316.00 C341.88,316.00 331.52,328.13 323.82,334.39 C314.19,342.20 315.66,339.54 327.61,327.50 ZM 247.02 331.91 C235.37,330.50 217.62,323.86 214.07,319.58 C213.35,318.71 212.25,317.99 211.63,317.98 C210.11,317.96 199.22,307.60 194.82,302.00 C189.13,294.77 183.11,282.70 181.00,274.30 C179.01,266.41 178.18,248.37 179.85,249.41 C180.31,249.69 180.97,254.42 181.30,259.90 C182.47,279.04 189.41,293.63 204.47,308.64 C212.02,316.15 215.15,318.49 222.08,321.79 C226.71,324.00 233.20,326.54 236.50,327.43 C244.69,329.63 261.09,330.50 268.50,329.11 C285.02,326.03 303.46,314.20 314.76,299.44 C317.59,295.74 324.97,282.09 325.13,280.27 C325.17,279.84 325.66,278.63 326.23,277.57 C328.15,273.98 330.10,263.53 330.12,256.69 C330.13,251.90 330.49,250.00 331.32,250.29 C333.21,250.93 332.18,266.52 329.82,273.00 C328.72,276.02 327.47,279.91 327.04,281.64 C325.07,289.58 318.46,299.54 308.50,309.59 C299.79,318.38 297.27,320.28 289.00,324.34 C274.25,331.56 262.16,333.74 247.02,331.91 ZM 244.00 319.31 C238.78,318.43 235.00,316.79 235.00,315.40 C235.00,314.38 234.30,314.14 232.62,314.56 C226.41,316.12 204.72,297.69 198.21,285.31 C193.68,276.72 191.00,265.49 191.00,255.16 C191.00,246.60 193.42,235.00 195.19,235.00 C195.71,235.00 195.99,234.21 195.83,233.25 C195.35,230.37 198.05,224.93 203.74,217.29 C214.12,203.36 223.89,196.90 240.58,192.91 C260.53,188.15 281.22,192.94 296.87,205.97 C313.00,219.39 322.01,242.01 319.18,261.99 C317.55,273.50 312.97,285.88 307.51,293.53 C299.27,305.08 284.76,314.93 270.94,318.37 C264.85,319.88 250.41,320.38 244.00,319.31 ZM 268.54 313.45 C276.99,311.26 284.11,307.80 290.85,302.62 C306.17,290.83 314.00,274.89 314.00,255.48 C314.00,239.00 308.42,225.35 297.04,213.96 C285.65,202.57 272.00,197.00 255.50,197.00 C244.63,197.00 237.03,198.82 227.89,203.63 C207.38,214.40 196.65,232.47 196.78,256.00 C196.85,267.11 199.16,275.70 204.68,285.28 C210.47,295.32 217.67,301.96 230.34,308.95 C240.74,314.67 256.62,316.55 268.54,313.45 ZM 179.58 290.25 C178.02,287.09 175.88,281.58 174.82,278.00 C172.65,270.67 171.07,249.00 172.70,249.00 C173.27,249.00 174.01,253.70 174.40,259.75 C175.36,274.57 176.41,278.85 181.62,289.24 C184.11,294.21 184.53,296.00 183.21,296.00 C182.77,296.00 181.14,293.41 179.58,290.25 ZM 165.00 251.42 C165.00,248.19 165.37,246.96 166.25,247.25 C166.97,247.50 167.44,249.13 167.35,251.09 C167.14,255.91 167.11,256.00 166.00,256.00 C165.45,256.00 165.00,253.94 165.00,251.42 ZM 343.61 252.81 C343.26,251.06 343.43,249.17 343.99,248.61 C344.67,247.93 345.00,248.97 345.00,251.80 C345.00,256.81 344.49,257.18 343.61,252.81 ZM 178.20 241.14 C176.52,240.08 178.63,234.92 180.46,235.62 C182.35,236.35 184.58,233.18 183.18,231.78 C181.83,230.43 177.95,232.18 174.36,235.75 C169.70,240.37 162.00,237.20 162.00,230.65 C162.00,226.42 165.15,223.00 169.04,223.00 C172.95,223.00 173.22,226.58 169.43,228.03 C167.82,228.64 166.98,229.63 167.18,230.67 C167.67,233.22 169.71,233.37 171.70,230.99 C177.91,223.58 188.05,224.99 187.97,233.25 C187.93,236.88 186.57,239.11 183.32,240.84 C180.75,242.21 179.95,242.25 178.20,241.14 ZM 335.07 238.37 C333.93,236.92 333.00,235.06 333.00,234.25 C333.00,233.18 332.37,232.95 330.75,233.42 C324.02,235.38 322.31,235.29 321.68,232.90 C321.35,231.63 321.26,230.41 321.48,230.19 C321.98,229.69 344.10,224.02 345.59,224.01 C346.92,224.00 349.00,230.59 349.00,234.81 C349.00,241.02 339.14,243.54 335.07,238.37 ZM 344.00 232.50 C344.00,229.60 344.21,229.68 340.15,231.10 C335.50,232.72 336.09,235.00 341.17,235.00 C343.52,235.00 344.00,234.58 344.00,232.50 ZM 182.76 216.66 C177.44,213.27 172.89,210.02 172.65,209.44 C172.40,208.85 172.96,207.38 173.88,206.16 L 175.55 203.95 L 178.97 206.48 C182.97,209.43 183.84,209.57 184.68,207.38 C185.11,206.28 184.10,204.74 181.56,202.61 L 177.81 199.46 L 179.75 197.06 L 181.69 194.67 L 191.34 201.83 C196.65,205.77 201.00,209.36 201.00,209.81 C201.00,210.25 200.39,211.45 199.65,212.47 C198.35,214.24 198.13,214.20 194.55,211.47 C191.87,209.43 190.40,208.89 189.33,209.56 C186.91,211.09 187.30,212.28 191.00,214.77 C195.21,217.59 195.56,218.37 193.79,220.89 C192.49,222.74 192.03,222.56 182.76,216.66 ZM 314.11 217.62 C312.79,216.21 311.83,213.87 311.78,211.92 C311.70,209.21 312.48,207.89 316.09,204.67 C323.79,197.79 329.11,196.47 333.61,200.34 C337.63,203.79 337.27,209.47 332.79,213.36 C324.47,220.58 318.23,222.01 314.11,217.62 ZM 325.57 211.25 C333.98,205.41 332.16,200.47 323.68,206.09 C318.06,209.81 316.80,211.32 317.59,213.37 C318.49,215.72 319.54,215.44 325.57,211.25 ZM 301.73 202.25 C300.27,200.64 300.37,200.19 303.02,196.65 C305.44,193.39 305.70,192.49 304.69,190.84 C303.57,189.00 303.27,189.15 299.50,193.41 C295.97,197.39 295.29,197.77 293.75,196.60 C292.79,195.87 292.00,194.95 292.00,194.55 C292.00,193.43 306.03,175.00 306.88,175.00 C307.29,175.00 308.47,175.62 309.51,176.39 C311.35,177.73 311.32,177.89 308.65,181.39 C304.52,186.81 307.36,189.44 312.00,184.50 C314.71,181.62 316.24,181.37 318.03,183.54 C319.10,184.82 318.92,185.63 317.00,188.29 C312.49,194.53 304.64,204.00 303.98,204.00 C303.61,204.00 302.60,203.21 301.73,202.25 ZM 200.83 197.81 C192.02,188.39 191.94,178.56 200.66,176.37 C204.51,175.41 207.87,177.63 212.21,184.03 C217.56,191.92 217.89,194.26 214.18,197.97 C209.91,202.24 204.91,202.18 200.83,197.81 ZM 209.84 195.12 C210.93,194.43 210.80,193.54 209.18,190.39 C206.34,184.85 201.33,180.27 199.80,181.80 C198.36,183.24 200.33,187.86 204.47,192.78 C207.38,196.24 207.79,196.42 209.84,195.12 ZM 225.07 188.63 C218.57,170.94 217.70,167.80 219.08,166.93 C221.93,165.13 224.03,165.91 224.65,169.00 C225.52,173.33 226.67,172.69 227.46,167.44 C227.97,164.04 228.69,162.68 230.32,162.06 C233.04,161.03 234.22,161.67 233.62,163.83 C233.37,164.75 232.89,167.54 232.56,170.03 C231.96,174.43 232.09,174.71 237.09,179.90 C241.04,183.99 241.92,185.44 240.87,186.10 C238.34,187.70 235.89,187.02 233.35,184.00 C230.07,180.11 228.91,180.19 230.07,184.24 C231.44,189.03 231.26,189.72 228.43,190.26 C226.46,190.63 225.67,190.25 225.07,188.63 ZM 276.50 188.85 C275.40,188.24 273.94,187.05 273.25,186.18 C271.90,184.49 271.52,178.99 272.75,179.01 C275.56,179.06 277.93,180.51 278.19,182.34 C278.36,183.52 279.29,184.63 280.25,184.81 C282.92,185.32 282.48,180.80 279.58,178.08 C276.55,175.23 275.69,171.94 277.06,168.34 C278.42,164.77 279.63,164.03 284.18,164.02 C286.97,164.00 288.35,164.63 289.93,166.63 C292.15,169.47 292.62,172.50 290.99,173.51 C289.29,174.56 286.00,172.97 286.00,171.10 C286.00,168.80 285.14,168.01 283.40,168.68 C281.23,169.51 281.73,171.50 285.00,175.00 C292.26,182.77 285.50,193.77 276.50,188.85 ZM 249.45 182.55 C247.36,180.45 247.00,179.15 247.00,173.69 C247.00,166.27 248.45,161.37 251.04,159.98 C253.77,158.52 259.26,158.80 261.72,160.52 C266.10,163.58 265.93,178.16 261.47,182.63 C258.21,185.88 252.76,185.85 249.45,182.55 ZM 258.02 177.43 C259.44,173.70 259.22,166.68 257.61,164.48 C256.43,162.86 255.97,162.78 254.61,163.91 C253.42,164.89 253.00,167.01 253.00,171.96 C253.00,175.65 253.30,178.97 253.67,179.33 C255.09,180.76 257.09,179.89 258.02,177.43 ZM 227.03 294.25 C230.26,284.71 236.00,265.31 235.97,264.03 C235.95,263.19 233.21,260.52 229.88,258.10 C226.55,255.68 223.59,253.09 223.30,252.35 C223.02,251.61 222.25,251.00 221.59,251.00 C220.94,251.00 217.50,248.86 213.95,246.25 L 207.50 241.50 L 225.67 241.00 C235.66,240.73 244.04,240.27 244.29,240.00 C244.99,239.24 254.00,210.68 254.00,209.25 C254.00,205.22 256.36,209.88 261.61,224.25 L 267.54 240.50 L 285.77 240.77 C295.80,240.92 303.99,241.37 303.98,241.77 C303.97,242.17 301.61,244.03 298.73,245.91 C290.70,251.14 275.00,262.99 275.03,263.79 C275.04,264.18 277.24,271.70 279.92,280.50 C282.60,289.30 284.63,296.66 284.45,296.86 C284.27,297.06 282.18,295.89 279.81,294.26 C277.44,292.63 271.16,288.32 265.86,284.67 L 256.21 278.03 L 244.54 285.49 C238.12,289.60 231.72,293.87 230.30,294.98 C226.82,297.72 225.93,297.52 227.03,294.25 ZM 274.44 283.25 C272.93,280.64 269.16,275.30 266.06,271.39 C262.97,267.48 259.68,263.21 258.77,261.89 C257.15,259.57 257.10,259.71 257.05,267.00 L 257.00 274.50 L 266.25 281.19 C271.34,284.87 275.88,287.90 276.35,287.94 C276.81,287.97 275.95,285.86 274.44,283.25 ZM 244.77 271.67 C249.94,265.16 253.96,259.63 253.71,259.37 C253.45,259.12 250.20,259.97 246.47,261.26 L 239.69 263.61 L 236.37 274.06 C232.91,284.90 232.12,289.13 234.22,285.50 C234.85,284.40 239.60,278.17 244.77,271.67 ZM 281.19 254.75 C285.59,251.31 290.16,247.71 291.35,246.75 C293.25,245.21 272.61,251.86 262.07,256.18 L 258.63 257.59 L 263.57 259.23 C271.33,261.82 272.51,261.52 281.19,254.75 ZM 250.27 249.75 L 245.36 243.50 L 230.48 243.22 C222.30,243.07 215.88,243.21 216.20,243.54 C217.13,244.47 251.29,255.87 253.34,255.94 C254.79,255.99 254.12,254.64 250.27,249.75 ZM 260.99 249.52 C264.98,243.39 265.14,242.86 263.96,239.77 C263.28,237.97 261.23,232.45 259.42,227.50 L 256.12 218.50 L 256.06 237.25 C256.03,247.56 256.17,256.00 256.38,256.00 C256.59,256.00 258.67,253.08 260.99,249.52 Z" fill="rgba(0,0,0,1)"/>
</g>
</svg>